HIERARCHY
ROOT Pelvis
{
	OFFSET 0.000000 0.000000 0.000000
	CHANNELS 6 Xposition Yposition Zposition Zrotation Yrotation Xrotation 
	JOINT Left_hip
	{
		OFFSET 0.068973 -0.091024 -0.007589
		CHANNELS 3 Zrotation Yrotation Xrotation
		JOINT Left_knee
		{
			OFFSET 0.036482 -0.391037 -0.003979
			CHANNELS 3 Zrotation Yrotation Xrotation
			JOINT Left_ankle
			{
				OFFSET -0.012239 -0.415469 -0.043440
				CHANNELS 3 Zrotation Yrotation Xrotation
				JOINT Left_foot
				{
					OFFSET 0.023806 -0.058558 0.118702
					CHANNELS 3 Zrotation Yrotation Xrotation
					End Site
					{
						OFFSET 0.000000 0.000000 0.000000
					}
				}
			}
		}
	}
	JOINT Right_hip
	{
		OFFSET -0.066552 -0.090468 -0.003847
		CHANNELS 3 Zrotation Yrotation Xrotation
		JOINT Right_knee
		{
			OFFSET -0.042435 -0.398340 -0.006400
			CHANNELS 3 Zrotation Yrotation Xrotation
			JOINT Right_ankle
			{
				OFFSET 0.014931 -0.415421 -0.041327
				CHANNELS 3 Zrotation Yrotation Xrotation
				JOINT Right_foot
				{
					OFFSET -0.021472 -0.049410 0.121889
					CHANNELS 3 Zrotation Yrotation Xrotation
					End Site
					{
						OFFSET 0.000000 0.000000 0.000000
					}
				}
			}
		}
	}
	JOINT Spine1
	{
		OFFSET -0.002904 0.105700 -0.022855
		CHANNELS 3 Zrotation Yrotation Xrotation
		JOINT Spine2
		{
			OFFSET 0.004179 0.132554 -0.002501
			CHANNELS 3 Zrotation Yrotation Xrotation
			JOINT Spine3
			{
				OFFSET 0.001987 0.049603 0.025988
				CHANNELS 3 Zrotation Yrotation Xrotation
				JOINT Neck
				{
					OFFSET -0.003935 0.211336 -0.045638
					CHANNELS 3 Zrotation Yrotation Xrotation
					JOINT Head
					{
						OFFSET 0.003906 0.065991 0.051018
						CHANNELS 3 Zrotation Yrotation Xrotation
						End Site
						{
							OFFSET 0.000000 0.000000 0.000000
						}
					}
				}
				JOINT Left_collar
				{
					OFFSET 0.072882 0.117751 -0.036270
					CHANNELS 3 Zrotation Yrotation Xrotation
					JOINT Left_shoulder
					{
						OFFSET 0.082118 0.032630 -0.005771
						CHANNELS 3 Zrotation Yrotation Xrotation
						JOINT Left_elbow
						{
							OFFSET 0.263305 -0.015144 -0.028095
							CHANNELS 3 Zrotation Yrotation Xrotation
							JOINT Left_wrist
							{
								OFFSET 0.250741 0.010115 -0.000759
								CHANNELS 3 Zrotation Yrotation Xrotation
								JOINT Left_palm
								{
									OFFSET 0.080683 -0.009989 -0.013613
									CHANNELS 3 Zrotation Yrotation Xrotation
									End Site
									{
										OFFSET 0.000000 0.000000 0.000000
									}
								}
							}
						}
					}
				}
				JOINT Right_collar
				{
					OFFSET -0.074811 0.116132 -0.040385
					CHANNELS 3 Zrotation Yrotation Xrotation
					JOINT Right_shoulder
					{
						OFFSET -0.085089 0.032943 -0.007484
						CHANNELS 3 Zrotation Yrotation Xrotation
						JOINT Right_elbow
						{
							OFFSET -0.254763 -0.014219 -0.020321
							CHANNELS 3 Zrotation Yrotation Xrotation
							JOINT Right_wrist
							{
								OFFSET -0.256597 0.009233 -0.005063
								CHANNELS 3 Zrotation Yrotation Xrotation
								JOINT Right_palm
								{
									OFFSET -0.080528 -0.007219 -0.010379
									CHANNELS 3 Zrotation Yrotation Xrotation
									End Site
									{
										OFFSET 0.000000 0.000000 0.000000
									}
								}
							}
						}
					}
				}
			}
		}
	}
}
MOTION
Frames: 13
Frame Time: 0.100000
0.000000 0.000000 0.000000 118.454053 79.496928 -74.962527 8.356095 1.502115 2.284095 -3.008194 -6.403240 9.061351 -4.427127 5.195126 6.450842 3.459650 9.067246 -9.122221 -5.297203 -8.476590 19.291371 5.867684 -1.502588 -6.338412 -4.502245 -8.719424 -1.540660 3.569509 -1.790125 8.374386 3.684604 4.672026 5.308704 -0.747539 -1.825803 7.496960 -0.624264 0.637321 1.055965 -0.463857 -7.375912 21.149338 -2.229172 -6.139393 11.717353 -23.247999 1.508090 9.024633 -53.370160 2.016479 8.002725 -0.741753 -15.363420 18.944448 -14.783492 1.894954 -4.354383 -9.415297 -3.836715 -14.875361 19.577438 10.624452 5.290822 45.389197 16.602396 8.041576 -7.466178 28.422285 1.160485 3.803921 -0.170688 -1.783316 12.489231 7.644925 -6.015548 
0.016713 -0.000465 -0.004017 97.723988 80.728212 -95.246998 9.791277 1.558600 4.562313 -1.726635 -6.314065 14.052725 -2.602414 6.681270 4.519395 1.832734 8.710031 -9.197264 -5.375695 -8.816095 17.761108 5.886374 -3.327003 -5.505372 -5.469046 -9.471647 -1.099239 4.239114 -2.436236 8.836596 3.273020 4.298193 5.260342 -0.413149 -1.624673 7.755566 -0.206831 0.418255 1.250443 -0.696263 -8.613182 20.758642 -1.369872 -6.966252 11.322084 -23.244499 1.254839 9.511962 -53.001987 0.521491 7.592713 -0.198179 -15.736060 18.855585 -15.580061 2.260601 -4.702355 -8.624817 -3.682325 -13.389914 21.353389 10.455788 6.413297 47.594017 14.423393 8.629944 -5.904024 22.883609 2.871010 5.454170 -1.355356 -0.798759 11.829515 7.640537 -5.688567 
0.026719 0.001898 -0.012072 74.630756 80.073004 -117.363110 12.565612 3.729363 7.231977 -0.683257 -2.569886 13.781506 -1.576739 9.253783 4.308548 1.670851 8.117481 -9.039456 -5.779016 -9.391579 16.551514 6.449231 -5.015294 -5.191920 -6.282566 -10.013815 -2.114193 5.201994 -2.926126 9.011668 2.775594 3.274063 4.554099 -0.178782 -1.888122 7.396084 -0.017447 -0.193177 1.351216 -1.100872 -8.597705 19.779197 -0.686005 -7.091067 11.489335 -22.867491 0.723892 9.571685 -51.821466 -2.522908 7.014852 0.951332 -18.184945 17.783839 -14.482172 1.906074 -5.082816 -7.377342 -3.250805 -11.377009 22.766830 9.237214 7.338831 49.788691 11.302076 9.584292 -3.840005 17.310653 5.458147 6.769291 -2.438487 0.463339 10.644778 7.306808 -5.401841 
0.031952 0.005132 -0.028302 58.564377 77.677729 -132.630136 14.805593 8.661633 9.243861 -1.237718 5.896525 11.609713 -2.188169 10.856917 7.022433 1.461196 7.729456 -9.738889 -6.247107 -10.745892 15.879768 6.810787 -7.285260 -4.916834 -6.023576 -10.425486 -2.430674 5.094725 -1.964682 7.762024 2.642978 1.768748 4.032437 -0.017649 -2.686729 7.025235 -0.051142 -1.161457 1.393906 -1.980572 -6.750370 18.662622 -0.526689 -5.002806 12.055088 -22.256339 -0.332942 9.419506 -50.277301 -6.239500 6.318598 1.103232 -22.820857 18.066632 -12.324553 0.977755 -4.230626 -6.484326 -3.081951 -9.808064 23.422158 7.129633 7.867821 51.280391 7.822395 10.476020 -2.324636 15.444508 7.725475 6.588071 -2.629193 1.905616 10.046856 7.085121 -5.163092 
0.036040 0.011042 -0.056999 50.133793 74.426273 -140.627409 13.431675 11.621851 11.603311 -1.452974 12.672502 4.262961 -1.362919 12.898741 8.274287 0.373855 7.531365 -9.079933 -6.214015 -11.849758 15.543660 6.058236 -9.804025 -4.697822 -4.599327 -11.823672 -0.280102 4.092023 0.381913 6.382405 3.097310 0.629391 3.710165 0.007953 -3.330682 6.635299 -0.127464 -1.966424 1.779887 -3.051559 -4.461584 17.889417 -0.860222 -1.870727 12.848064 -21.392749 -1.911271 9.011313 -49.214612 -9.764916 6.319167 -0.043452 -29.300449 20.107349 -10.585140 -0.051775 -2.869935 -5.688383 -3.267427 -8.538729 23.119673 5.850875 8.298386 51.731802 4.757030 12.302307 -0.620686 16.111177 11.474439 6.368376 -2.231436 5.073317 9.613829 7.128562 -5.178644 
0.040018 0.018848 -0.089762 50.860654 72.976033 -139.887147 11.847160 10.704229 13.547616 -1.590648 12.158131 0.672806 1.216303 13.463369 5.733245 -1.361186 7.704987 -7.668652 -6.771135 -12.058871 15.344943 5.400666 -10.395450 -4.574832 -3.251975 -12.472847 1.812191 3.381815 1.680528 5.775067 3.188275 1.026570 3.189140 -0.036743 -2.617414 7.051303 -0.153136 -1.381602 1.935895 -3.580059 -4.009479 17.799624 -0.552477 -0.906913 12.580052 -20.585534 -3.438324 8.923619 -48.888797 -11.859255 7.241711 -1.689594 -37.740651 23.252038 -9.394329 -0.952404 -3.632343 -5.670257 -3.537160 -7.043327 22.666586 6.931431 9.694439 51.755544 3.033917 13.830010 0.348396 17.687416 15.631855 6.489827 -2.344443 8.027513 9.702905 7.565857 -5.578158 
0.045098 0.028259 -0.129308 57.070082 72.987742 -134.109886 10.235030 10.194309 13.841304 -1.651711 12.458111 1.946391 3.635439 14.235076 2.116809 -2.656368 8.493662 -6.604680 -7.990849 -11.962908 15.027133 4.438096 -9.993593 -4.223896 -0.887869 -12.556080 3.914898 1.375601 2.837893 4.323335 3.279367 1.512474 3.243024 -0.341278 -1.678979 7.288888 -0.472170 -0.720113 2.211519 -3.644793 -4.204314 17.456936 -1.044831 -0.207510 12.747031 -20.571926 -2.892901 8.787281 -49.456526 -11.578965 7.695292 -2.840163 -43.664933 25.315447 -8.052715 -1.742647 -4.596270 -6.010915 -3.821234 -6.293646 21.962073 7.826234 9.709774 50.229828 4.120188 14.806539 1.434504 21.783295 17.406338 5.293608 -1.907259 9.868579 10.342693 7.998944 -6.044951 
0.053503 0.039997 -0.170997 65.924495 73.502304 -126.462897 8.485725 10.203456 14.056721 -1.605146 12.443257 4.989911 6.564565 15.333326 -1.732190 -4.599996 10.053771 -5.227459 -9.624881 -11.634269 13.522656 3.047447 -9.139293 -0.947156 0.362729 -12.463135 4.867854 0.685338 3.619898 3.202346 3.601291 1.946262 4.315945 -0.899748 -0.618685 8.033645 -0.992546 0.062517 2.157339 -3.235321 -5.255103 17.628486 -1.977641 -0.245243 12.638491 -21.563069 -3.607557 8.533676 -49.222258 -10.293078 7.081304 -3.821447 -40.438733 25.406193 -8.180633 -0.907741 -3.061682 -6.550257 -4.141504 -7.297261 21.036002 11.127829 9.401911 46.240531 8.192885 15.099685 3.152209 24.687308 18.459336 3.963793 -1.524152 12.725497 11.172603 8.546039 -6.855783 
0.057348 0.054024 -0.210419 74.617848 72.777321 -125.210885 10.382711 12.043130 22.808654 -2.434793 9.515371 5.982817 -0.744006 18.705878 -8.400772 3.652718 7.844630 -2.393296 -11.257559 -10.745070 18.665042 0.868764 -5.243660 4.248513 6.650444 -12.259277 0.723430 -4.836643 3.336284 -2.552420 5.107589 1.665950 8.911781 -2.592466 -0.326967 12.556362 -0.972590 1.498286 1.715268 -2.660115 -5.849863 17.487688 -0.534431 -1.108966 12.096150 -23.991568 -9.817114 8.309549 -46.812447 -4.983864 7.923902 -1.551202 -30.515962 24.267744 1.599510 -4.373748 13.463905 -3.748997 -2.672760 -10.136702 19.373540 19.919835 9.580500 39.236826 13.066951 11.513269 7.451529 20.627852 32.827898 -0.896782 2.590272 36.704793 4.475310 7.121834 -7.140420 
0.051951 0.059605 -0.242687 61.285047 69.339930 -139.699358 10.226330 11.773988 24.899682 -2.789768 4.827213 5.647136 -0.258891 18.344749 -9.318280 2.926695 7.838403 -1.580473 -9.470476 -8.809024 16.631003 1.138614 -1.319317 11.265663 4.319621 -11.765197 -2.075836 -2.293902 3.925101 -1.511168 4.556189 1.116596 8.277371 -2.373810 -0.649085 13.480095 -1.480762 1.265046 1.401583 -0.113649 -7.978254 18.884692 -0.131942 -4.134494 12.735929 -25.978533 -12.561273 8.555511 -43.578876 -4.882584 7.288970 -2.282622 -15.429926 22.587879 -0.077232 -1.582833 19.289430 -4.646322 -2.664882 -13.597666 19.773327 22.773336 8.928150 35.403191 16.051483 10.103949 6.720608 15.380744 32.316332 0.492390 0.522430 36.895546 4.447109 7.087615 -7.287940 
0.040379 0.058687 -0.266374 43.501937 61.241262 -156.262072 10.319488 9.989541 25.461644 -2.636144 -0.838844 3.432601 -1.280983 16.264246 -8.126240 3.043527 6.627092 -1.256311 -5.956345 -7.847928 14.649303 1.631878 -1.028697 10.514511 3.984584 -11.731397 -0.568928 -2.069776 4.083849 -0.339919 2.820750 0.542103 7.513001 -1.807455 -1.607187 12.514515 -1.137191 0.461403 1.033840 1.632476 -11.123836 18.567078 2.081407 -8.827360 12.366880 -24.882265 -12.379767 8.305040 -42.048502 -5.027216 7.081076 -1.999585 -13.320294 22.239235 -2.198100 -0.961079 20.743516 -4.400620 -2.538375 -14.689324 18.897175 22.071180 7.609397 35.839165 14.412386 10.324595 6.474397 14.463433 33.643486 2.908888 -0.358648 34.341916 4.107852 6.832206 -6.146372 
0.028681 0.059322 -0.286123 33.453580 52.460413 -164.963659 10.230783 7.693049 25.883000 -2.290804 -6.079725 1.459295 -2.248041 15.079868 -7.322446 2.916129 4.454125 -0.458697 -3.163700 -6.654785 10.691286 2.267360 -0.846225 7.520492 4.362935 -11.223358 1.453350 -2.170981 4.595819 1.891226 1.149540 0.440865 7.683835 -1.500756 -1.675380 12.385496 -1.069769 0.407856 0.646373 2.737529 -13.225610 16.971714 5.300237 -13.242162 10.419156 -24.367769 -12.587993 8.168825 -37.441408 -5.463933 8.325978 -4.057585 -18.995797 19.862492 -0.914436 -3.628550 16.773138 -5.262714 -2.944577 -13.716988 19.979528 21.023673 7.873864 35.077363 10.584697 10.475079 6.645617 15.379781 31.488499 3.298601 0.711129 30.062701 4.730350 7.160822 -5.829730 
0.015702 0.061867 -0.297956 26.752833 43.306529 -171.207505 10.917897 5.991658 25.158659 -2.024868 -11.869311 3.601122 -2.491837 12.900874 -8.103099 1.942499 4.534619 -0.085144 -2.265954 -6.717296 6.535434 2.796288 -2.509697 4.722010 5.816624 -11.211150 4.138905 -3.436840 4.529137 2.459527 -0.392265 0.819187 10.491389 -1.541139 -1.924917 13.120629 -0.527885 0.205883 0.164134 4.080546 -13.469047 14.622584 9.702308 -14.958232 4.946751 -23.906433 -14.846842 8.365641 -34.046059 -7.110961 8.549492 -4.441369 -23.650069 22.028371 1.391701 -4.802123 20.751731 -6.506548 -4.123932 -14.857749 20.581460 20.813991 8.592196 36.342965 5.383776 9.530476 5.527289 16.898635 30.133363 1.562414 1.847922 29.225135 6.850396 8.341655 -7.100526 
